<mxfile host="www.draw.io" modified="2019-10-22T02:45:12.137Z" agent="Mozilla/5.0 (Macintosh; Intel Mac OS X 10_13_4) AppleWebKit/537.36 (KHTML, like Gecko) Chrome/77.0.3865.90 Safari/537.36" etag="QoogDlI2QKaDkNnaSb3K" version="12.1.3" type="github" pages="1">
  <diagram id="GXcnSGkBILCFDOEzEzxC" name="Page-1">
    <mxGraphModel dx="786" dy="465" grid="1" gridSize="10" guides="1" tooltips="1" connect="1" arrows="1" fold="1" page="1" pageScale="1" pageWidth="826" pageHeight="1169" math="0" shadow="0">
      <root>
        <mxCell id="0"/>
        <mxCell id="1" parent="0"/>
        <mxCell id="27X9IHpaQD17-JOF2652-1" value="" style="rounded=0;whiteSpace=wrap;html=1;dashed=1;strokeWidth=2;" vertex="1" parent="1">
          <mxGeometry x="40" y="90" width="720" height="390" as="geometry"/>
        </mxCell>
        <mxCell id="27X9IHpaQD17-JOF2652-2" value="&lt;b&gt;&lt;font style=&quot;font-size: 14px&quot;&gt;mars monitor&lt;/font&gt;&lt;/b&gt;" style="text;html=1;strokeColor=none;fillColor=none;align=center;verticalAlign=middle;whiteSpace=wrap;rounded=0;dashed=1;" vertex="1" parent="1">
          <mxGeometry x="50" y="100" width="130" height="20" as="geometry"/>
        </mxCell>
        <mxCell id="27X9IHpaQD17-JOF2652-3" value="" style="rounded=0;whiteSpace=wrap;html=1;strokeWidth=1;fillColor=#ffe6cc;strokeColor=#d79b00;" vertex="1" parent="1">
          <mxGeometry x="70" y="150" width="330" height="310" as="geometry"/>
        </mxCell>
        <mxCell id="27X9IHpaQD17-JOF2652-4" value="&lt;font style=&quot;font-size: 14px&quot;&gt;base module&lt;/font&gt;" style="text;html=1;strokeColor=none;fillColor=none;align=center;verticalAlign=middle;whiteSpace=wrap;rounded=0;" vertex="1" parent="1">
          <mxGeometry x="85" y="170" width="95" height="20" as="geometry"/>
        </mxCell>
        <mxCell id="27X9IHpaQD17-JOF2652-5" value="存储单元" style="rounded=0;whiteSpace=wrap;html=1;strokeWidth=1;fillColor=#d5e8d4;strokeColor=#82b366;" vertex="1" parent="1">
          <mxGeometry x="115" y="370" width="235" height="60" as="geometry"/>
        </mxCell>
        <mxCell id="27X9IHpaQD17-JOF2652-6" value="数据拉取单元" style="rounded=0;whiteSpace=wrap;html=1;strokeWidth=1;fillColor=#d5e8d4;strokeColor=#82b366;" vertex="1" parent="1">
          <mxGeometry x="115" y="290" width="235" height="60" as="geometry"/>
        </mxCell>
        <mxCell id="27X9IHpaQD17-JOF2652-7" value="计算单元" style="rounded=0;whiteSpace=wrap;html=1;strokeWidth=1;fillColor=#d5e8d4;strokeColor=#82b366;" vertex="1" parent="1">
          <mxGeometry x="115" y="210" width="235" height="60" as="geometry"/>
        </mxCell>
        <mxCell id="27X9IHpaQD17-JOF2652-8" value="" style="rounded=0;whiteSpace=wrap;html=1;strokeWidth=1;fillColor=#ffe6cc;strokeColor=#d79b00;" vertex="1" parent="1">
          <mxGeometry x="430" y="150" width="300" height="310" as="geometry"/>
        </mxCell>
        <mxCell id="27X9IHpaQD17-JOF2652-9" value="&lt;font style=&quot;font-size: 14px&quot;&gt;convert module&lt;/font&gt;" style="text;html=1;strokeColor=none;fillColor=none;align=center;verticalAlign=middle;whiteSpace=wrap;rounded=0;" vertex="1" parent="1">
          <mxGeometry x="450" y="170" width="120" height="20" as="geometry"/>
        </mxCell>
        <mxCell id="27X9IHpaQD17-JOF2652-10" value="统计规则" style="rounded=0;whiteSpace=wrap;html=1;strokeWidth=1;fillColor=#d5e8d4;strokeColor=#82b366;" vertex="1" parent="1">
          <mxGeometry x="467.5" y="360" width="225" height="60" as="geometry"/>
        </mxCell>
        <mxCell id="27X9IHpaQD17-JOF2652-11" value="指标统计单元" style="rounded=0;whiteSpace=wrap;html=1;strokeWidth=1;fillColor=#d5e8d4;strokeColor=#82b366;" vertex="1" parent="1">
          <mxGeometry x="467.5" y="260" width="225" height="60" as="geometry"/>
        </mxCell>
      </root>
    </mxGraphModel>
  </diagram>
</mxfile>
